Coordinates
version=1
nRows=19
nColumns=33
inDegrees=yes

Units are S.I. units (second, meters, Newtons, ...)
Angles are in degrees.

endheader
time	ground_thorax_rot_x	ground_thorax_rot_y	ground_thorax_rot_z	ground_thorax_tx	ground_thorax_ty	ground_thorax_tz	clav_prot_r	clav_elev_r	scapula_abduction_r	scapula_elevation_r	scapula_upward_rot_r	scapula_winging_r	shoulder_elv_r	plane_of_elev_r	axial_rot_r	elbow_flexion_r	pro_sup_r	wrist_flex_r	wrist_dev_r	clav_prot_l	clav_elev_l	scapula_abduction_l	scapula_elevation_l	scapula_upward_rot_l	scapula_winging_l	shoulder_elv_l	plane_of_elev_l	axial_rot_l	elbow_flexion_l	pro_sup_l	wrist_flex_l	wrist_dev_l
      5.69000000	     90.00000000	    -90.00000000	    -90.00000000	   -226.82198558	    866.42137263	     -5.59499428	    -45.00000000	     -1.62550248	    -30.50664252	      9.83000041	    -45.00000000	   1692.63760017	  -2047.94553621	     29.86424207	    179.99999979	    371.00950401	     62.25185544	     24.55870373	     10.92298744	     19.34861820	     37.17832981	    -45.00000000	    -45.00000000	     19.62653934	  -2139.61647260	   -772.36388480	    141.49913294	     -1.27567151	    371.28642752	     41.51633015	      7.97968509	    -22.77787433
      5.70000000	     90.00000000	    -90.00000000	    -90.00000000	   -227.76911814	    868.26957375	     -5.57239052	    -45.00000000	     -2.10595502	    -30.47509255	      9.64893618	    -45.00000000	   1692.65483403	  -2047.87966952	     29.83017346	    179.99999979	    371.07900105	     61.63686148	     24.55163505	     10.90598219	     19.29648521	     37.12158611	    -45.00000000	    -45.00000000	     19.87413007	  -2139.74871635	   -772.43345395	    141.23713339	     -2.06093242	    371.30336072	     40.22276294	      7.88283325	    -22.70703148
      5.71000000	     90.00000000	    -90.00000000	    -90.00000000	   -228.42807089	    869.90252864	     -5.53056679	    -45.00000000	     -2.47701387	    -30.43366089	      9.38723740	    -45.00000000	   1692.48888778	  -2047.81789685	     29.89446151	    179.99999979	    371.11229288	     61.18876113	     24.61128280	     10.91917300	     19.22843060	     37.14838225	    -45.00000000	    -45.00000000	     19.87703209	  -2140.02617140	   -772.33297397	    141.24064956	     -2.42564279	    371.22296174	     39.20049819	      8.02684395	    -22.74205786
      5.72000000	     90.00000000	    -90.00000000	    -90.00000000	   -228.81008720	    871.33149976	     -5.47795319	    -45.00000000	     -2.89531248	    -30.59620968	      9.08567764	    -45.00000000	   1692.19036431	  -2047.58227441	     29.99613076	    179.99999979	    370.94770987	     60.89802123	     24.69151537	     11.00425019	     19.14875439	     37.22335003	    -45.00000000	    -45.00000000	     19.58205537	  -2140.43904307	   -771.97772736	    141.43302011	     -2.86115184	    371.06170034	     38.49287158	      8.28856010	    -22.80169897
      5.73000000	     90.00000000	    -90.00000000	    -90.00000000	   -228.92995999	    872.57079226	     -5.41743719	    -45.00000000	     -2.59450017	    -30.70788331	      8.99871227	    -45.00000000	   1692.39434029	  -2047.52795259	     29.79526017	    179.99999979	    370.98447303	     60.61934647	     24.57583536	     11.00879308	     19.21226491	     37.10405977	    -45.00000000	    -45.00000000	     20.15608111	  -2140.24750301	   -772.43840488	    140.90302055	     -2.74824792	    371.21569659	     37.71444238	      8.08532663	    -22.66901289
      5.74000000	     90.00000000	    -90.00000000	    -90.00000000	   -228.80066200	    873.63399738	     -5.35211960	    -45.00000000	     -2.56127268	    -30.69230185	      9.03983962	    -45.00000000	   1692.41816896	  -2047.76950158	     29.83050199	    179.99999979	    371.12590164	     60.33238188	     24.64609920	     11.00784156	     19.12026684	     37.23742668	    -45.00000000	    -45.00000000	     19.94852961	  -2140.53439037	   -772.22841070	    141.10528215	     -3.04003220	    371.08398100	     36.95239797	      8.31172878	    -22.71131009
      5.75000000	     90.00000000	    -90.00000000	    -90.00000000	   -228.43911846	    874.54249693	     -5.28310299	    -45.00000000	     -2.83446747	    -30.75172033	      8.91225186	    -45.00000000	   1692.37007562	  -2047.75322569	     29.86271498	    179.99999979	    371.29844466	     60.16281291	     24.66528904	     10.97610789	     19.11488066	     37.25887674	    -45.00000000	    -45.00000000	     19.82621951	  -2140.65667546	   -772.06577021	    141.10252257	     -3.20521477	    371.04181845	     36.34403726	      8.42021693	    -22.72903875
      5.76000000	     90.00000000	    -90.00000000	    -90.00000000	   -227.86592594	    875.31851472	     -5.21080166	    -45.00000000	     -2.79164283	    -30.88324962	      8.72789679	    -45.00000000	   1692.21677094	  -2047.69518160	     29.85761368	    179.99999979	    371.24508764	     60.15366508	     24.75024463	     11.04904045	     19.14854462	     37.25760794	    -45.00000000	    -45.00000000	     19.93027779	  -2140.68881514	   -772.18672130	    141.05964286	     -3.21388066	    371.00804547	     35.83493327	      8.39544753	    -22.67679587
      5.77000000	     90.00000000	    -90.00000000	    -90.00000000	   -227.10800423	    876.00378199	     -5.12876927	    -45.00000000	     -2.98449492	    -30.94390096	      8.61595121	    -45.00000000	   1692.19724964	  -2047.73106734	     29.78633060	    179.99999979	    371.39967565	     60.23654851	     24.73594841	     10.99002590	     19.13826586	     37.33436625	    -45.00000000	    -45.00000000	     19.69937434	  -2140.82335676	   -772.00490961	    141.07500067	     -3.33526851	    371.14984272	     35.44601870	      8.47272364	    -22.75473333
      5.78000000	     90.00000000	    -90.00000000	    -90.00000000	   -226.18756209	    876.62121047	     -5.03686669	    -45.00000000	     -3.04807881	    -30.86735865	      8.42522967	    -45.00000000	   1691.84531279	  -2047.87970080	     29.83911845	    179.99999979	    371.45857003	     60.48318472	     24.93119527	     11.05237714	     19.23879047	     37.26083963	    -45.00000000	    -45.00000000	     19.99119322	  -2140.74466645	   -772.36874389	    141.00854718	     -3.18309981	    371.05700908	     35.12490362	      8.29268246	    -22.60624283
      5.79000000	     90.00000000	    -90.00000000	    -90.00000000	   -225.12321897	    877.20071495	     -4.93247385	    -45.00000000	     -3.36858046	    -30.96811054	      8.22255985	    -45.00000000	   1691.82965799	  -2047.81090855	     29.72204460	    179.99999979	    371.61742021	     60.81948007	     24.84435671	     10.92701257	     19.16810640	     37.48948797	    -45.00000000	    -45.00000000	     19.21443968	  -2140.92974586	   -771.68332727	    141.15944841	     -3.55462841	    371.24211305	     35.01871333	      8.61278587	    -22.87842009
      5.80000000	     90.00000000	    -90.00000000	    -90.00000000	   -223.93004406	    877.75757115	     -4.81874738	    -45.00000000	     -3.24424762	    -31.30082491	      8.26189582	    -45.00000000	   1692.05160155	  -2047.82164492	     29.80611994	    179.99999979	    372.03704591	     61.34999130	     25.07518181	     10.82010582	     19.30417496	     37.43244307	    -45.00000000	    -45.00000000	     19.69602045	  -2140.81690258	   -772.27870108	    141.10467096	     -3.28300657	    371.15176420	     34.89457619	      8.35399278	    -22.68430353
      5.81000000	     90.00000000	    -90.00000000	    -90.00000000	   -222.63213491	    878.31960811	     -4.69291283	    -45.00000000	     -3.55374429	    -31.33846035	      8.02390614	    -45.00000000	   1691.85690887	  -2047.87096018	     29.80351596	    179.99999979	    372.25762121	     61.98188564	     25.21922892	     10.73320951	     19.38543710	     37.41706348	    -45.00000000	    -45.00000000	     19.59509049	  -2140.80798637	   -772.28869548	    141.11688931	     -3.27297696	    371.20881041	     34.92882243	      8.23692897	    -22.66756484
      5.82000000	     90.00000000	    -90.00000000	    -90.00000000	   -221.24266710	    878.90229984	     -4.55845457	    -45.00000000	     -3.78716298	    -31.43267429	      7.85117168	    -45.00000000	   1691.65552623	  -2047.95493474	     29.87865508	    179.99999979	    372.42482947	     62.65114277	     25.41919532	     10.66604764	     19.46817553	     37.44795480	    -45.00000000	    -45.00000000	     19.45380026	  -2140.80111508	   -772.31532482	    141.14699668	     -3.26779254	    371.25055109	     35.07986679	      8.21031724	    -22.70046241
      5.83000000	     90.00000000	    -90.00000000	    -90.00000000	   -219.77487047	    879.53333010	     -4.41278668	    -45.00000000	     -3.91711331	    -31.56710779	      7.69922459	    -45.00000000	   1691.70063230	  -2047.97940023	     29.69985092	    179.99999979	    372.57558320	     63.39337794	     25.48621110	     10.52506378	     19.55633093	     37.49107772	    -45.00000000	    -45.00000000	     19.35846796	  -2140.80859614	   -772.40164172	    141.19148969	     -3.22822472	    371.34167415	     35.32003237	      8.12608977	    -22.71781259
      5.84000000	     90.00000000	    -90.00000000	    -90.00000000	   -218.24328486	    880.23199349	     -4.25702779	    -45.00000000	     -4.20893488	    -31.67618592	      7.45239295	    -45.00000000	   1691.46213576	  -2048.06910566	     29.77744415	    179.99999979	    372.78673969	     64.13040312	     25.70169415	     10.42209138	     19.65196142	     37.51025237	    -45.00000000	    -45.00000000	     19.22323650	  -2140.80250826	   -772.42293654	    141.23228000	     -3.21604490	    371.40315667	     35.63959545	      8.06721481	    -22.75458516
      5.85000000	     90.00000000	    -90.00000000	    -90.00000000	   -216.64958875	    881.02891390	     -4.08861596	    -45.00000000	     -4.45793435	    -31.80937711	      7.25548052	    -45.00000000	   1691.40477770	  -2048.17440450	     29.68973492	    179.99999979	    372.91671910	     64.85496359	     25.81074250	     10.29143660	     19.75380491	     37.54453785	    -45.00000000	    -45.00000000	     19.07659896	  -2140.83619331	   -772.46890838	    141.25071045	     -3.19693765	    371.46775159	     36.00703547	      7.99947311	    -22.78887083
      5.86000000	     90.00000000	    -90.00000000	    -90.00000000	   -214.98731477	    881.93558235	     -3.91362445	    -45.00000000	     -4.70112665	    -31.98166701	      7.00143369	    -45.00000000	   1691.36922179	  -2048.26073973	     29.66329462	    179.99999979	    373.08388795	     65.56781700	     25.92500016	     10.14980633	     19.86038475	     37.58674627	    -45.00000000	    -45.00000000	     18.95250574	  -2140.86997937	   -772.54441180	    141.27807517	     -3.16202150	    371.54219930	     36.41865206	      7.91134649	    -22.81336146
      5.87000000	     90.00000000	    -90.00000000	    -90.00000000	   -213.23343091	    882.96564163	     -3.73737979	    -45.00000000	     -5.15166112	    -31.97439385	      6.68110280	    -45.00000000	   1690.94293344	  -2048.37621028	     29.72251444	    179.99999979	    373.27046023	     66.22232593	     26.12127184	     10.03809338	     19.97282551	     37.60755870	    -45.00000000	    -45.00000000	     18.76565070	  -2140.90068054	   -772.56071366	    141.30523749	     -3.14016341	    371.61352617	     36.84282953	      7.82510050	    -22.84711679
